# Blender 4.5.0
# www.blender.org
mtllib solarsail.mtl
o Plane
v -1.000000 0.000000 1.000000
v 1.000000 0.000000 1.000000
v -1.000000 0.000000 -1.000000
v 1.000000 0.000000 -1.000000
vn -0.0000 1.0000 -0.0000
vt 0.000000 0.000000
vt 1.000000 0.000000
vt 1.000000 1.000000
vt 0.000000 1.000000
s 0
f 1/1/1 2/2/1 4/3/1 3/4/1
o Cone
v 0.000000 -0.062500 -0.125000
v 0.024386 -0.062500 -0.122598
v 0.047835 -0.062500 -0.115485
v 0.069446 -0.062500 -0.103934
v 0.088388 -0.062500 -0.088388
v 0.103934 -0.062500 -0.069446
v 0.115485 -0.062500 -0.047835
v 0.122598 -0.062500 -0.024386
v 0.125000 -0.062500 0.000000
v 0.122598 -0.062500 0.024386
v 0.115485 -0.062500 0.047835
v 0.103934 -0.062500 0.069446
v 0.088388 -0.062500 0.088388
v 0.069446 -0.062500 0.103934
v 0.047835 -0.062500 0.115485
v 0.024386 -0.062500 0.122598
v 0.000000 -0.062500 0.125000
v -0.024386 -0.062500 0.122598
v -0.047835 -0.062500 0.115485
v -0.069446 -0.062500 0.103934
v -0.088388 -0.062500 0.088388
v -0.103934 -0.062500 0.069446
v -0.115485 -0.062500 0.047835
v -0.122598 -0.062500 0.024386
v -0.125000 -0.062500 0.000000
v -0.122598 -0.062500 -0.024386
v -0.115485 -0.062500 -0.047835
v -0.103934 -0.062500 -0.069446
v -0.088388 -0.062500 -0.088388
v -0.069446 -0.062500 -0.103934
v -0.047835 -0.062500 -0.115485
v -0.024386 -0.062500 -0.122598
v 0.000000 0.062500 0.000000
vn -0.0000 0.7071 -0.7071
vn -0.0000 1.0000 -0.0000
vn 0.1379 0.7071 -0.6935
vn 0.2706 0.7071 -0.6533
vn 0.3928 0.7071 -0.5879
vn 0.5000 0.7071 -0.5000
vn 0.5879 0.7071 -0.3928
vn 0.6533 0.7071 -0.2706
vn 0.6935 0.7071 -0.1379
vn 0.7071 0.7071 -0.0000
vn 0.6935 0.7071 0.1379
vn 0.6533 0.7071 0.2706
vn 0.5879 0.7071 0.3928
vn 0.5000 0.7071 0.5000
vn 0.3928 0.7071 0.5879
vn 0.2706 0.7071 0.6533
vn 0.1379 0.7071 0.6935
vn -0.0000 0.7071 0.7071
vn -0.1379 0.7071 0.6935
vn -0.2706 0.7071 0.6533
vn -0.3928 0.7071 0.5879
vn -0.5000 0.7071 0.5000
vn -0.5879 0.7071 0.3928
vn -0.6533 0.7071 0.2706
vn -0.6935 0.7071 0.1379
vn -0.7071 0.7071 -0.0000
vn -0.6935 0.7071 -0.1379
vn -0.6533 0.7071 -0.2706
vn -0.5879 0.7071 -0.3928
vn -0.5000 0.7071 -0.5000
vn -0.3928 0.7071 -0.5879
vn -0.2706 0.7071 -0.6533
vn -0.0000 -1.0000 -0.0000
vn -0.1379 0.7071 -0.6935
vt 0.250000 0.490000
vt 0.250000 0.250000
vt 0.296822 0.485388
vt 0.341844 0.471731
vt 0.383337 0.449553
vt 0.419706 0.419706
vt 0.449553 0.383337
vt 0.471731 0.341844
vt 0.485388 0.296822
vt 0.490000 0.250000
vt 0.485388 0.203178
vt 0.471731 0.158156
vt 0.449553 0.116663
vt 0.419706 0.080294
vt 0.383337 0.050447
vt 0.341844 0.028269
vt 0.296822 0.014612
vt 0.250000 0.010000
vt 0.203178 0.014612
vt 0.158156 0.028269
vt 0.116663 0.050447
vt 0.080294 0.080294
vt 0.050447 0.116663
vt 0.028269 0.158156
vt 0.014612 0.203178
vt 0.010000 0.250000
vt 0.014612 0.296822
vt 0.028269 0.341844
vt 0.050447 0.383337
vt 0.080294 0.419706
vt 0.116663 0.449553
vt 0.158156 0.471731
vt 0.750000 0.490000
vt 0.796822 0.485388
vt 0.841844 0.471731
vt 0.883337 0.449553
vt 0.919706 0.419706
vt 0.949553 0.383337
vt 0.971731 0.341844
vt 0.985388 0.296822
vt 0.990000 0.250000
vt 0.985388 0.203178
vt 0.971731 0.158156
vt 0.949553 0.116663
vt 0.919706 0.080294
vt 0.883337 0.050447
vt 0.841844 0.028269
vt 0.796822 0.014612
vt 0.750000 0.010000
vt 0.703178 0.014612
vt 0.658156 0.028269
vt 0.616663 0.050447
vt 0.580294 0.080294
vt 0.550447 0.116663
vt 0.528269 0.158156
vt 0.514612 0.203178
vt 0.510000 0.250000
vt 0.514612 0.296822
vt 0.528269 0.341844
vt 0.550447 0.383337
vt 0.580294 0.419706
vt 0.616663 0.449553
vt 0.658156 0.471731
vt 0.703178 0.485388
vt 0.203178 0.485388
s 1
f 5/5/2 37/6/3 6/7/4
f 6/7/4 37/6/3 7/8/5
f 7/8/5 37/6/3 8/9/6
f 8/9/6 37/6/3 9/10/7
f 9/10/7 37/6/3 10/11/8
f 10/11/8 37/6/3 11/12/9
f 11/12/9 37/6/3 12/13/10
f 12/13/10 37/6/3 13/14/11
f 13/14/11 37/6/3 14/15/12
f 14/15/12 37/6/3 15/16/13
f 15/16/13 37/6/3 16/17/14
f 16/17/14 37/6/3 17/18/15
f 17/18/15 37/6/3 18/19/16
f 18/19/16 37/6/3 19/20/17
f 19/20/17 37/6/3 20/21/18
f 20/21/18 37/6/3 21/22/19
f 21/22/19 37/6/3 22/23/20
f 22/23/20 37/6/3 23/24/21
f 23/24/21 37/6/3 24/25/22
f 24/25/22 37/6/3 25/26/23
f 25/26/23 37/6/3 26/27/24
f 26/27/24 37/6/3 27/28/25
f 27/28/25 37/6/3 28/29/26
f 28/29/26 37/6/3 29/30/27
f 29/30/27 37/6/3 30/31/28
f 30/31/28 37/6/3 31/32/29
f 31/32/29 37/6/3 32/33/30
f 32/33/30 37/6/3 33/34/31
f 33/34/31 37/6/3 34/35/32
f 34/35/32 37/6/3 35/36/33
f 5/37/34 6/38/34 7/39/34 8/40/34 9/41/34 10/42/34 11/43/34 12/44/34 13/45/34 14/46/34 15/47/34 16/48/34 17/49/34 18/50/34 19/51/34 20/52/34 21/53/34 22/54/34 23/55/34 24/56/34 25/57/34 26/58/34 27/59/34 28/60/34 29/61/34 30/62/34 31/63/34 32/64/34 33/65/34 34/66/34 35/67/34 36/68/34
f 35/36/33 37/6/3 36/69/35
f 36/69/35 37/6/3 5/5/2
